<svg width="20" height="19" xmlns="http://www.w3.org/2000/svg"><path fill-rule="evenodd" clip-rule="evenodd" d="m9.7708 0c-5.403 0-9.7708 4.4-9.7708 9.8434 0 4.3512 2.7986 8.0344 6.681 9.338.4854.098.6632-.2118.6632-.4724 0-.2282-.016-1.0104-.016-1.8254-2.718.5868-3.284-1.1734-3.284-1.1734-.4368-1.1408-1.084-1.434-1.084-1.434-.8896-.603.0648-.603.0648-.603.9868.0652 1.5046 1.0104 1.5046 1.0104.8734 1.4992 2.2808 1.0756 2.847.8148.0808-.6356.3398-1.0756.6148-1.32-2.1678-.2282-4.4486-1.0756-4.4486-4.8566 0-1.0756.388-1.9556 1.0028-2.64-.097-.2444-.4368-1.255.0972-2.6076 0 0 .825-.2608 2.6852 1.0104a9.394 9.394 90 012.4428-.326c.825 0 1.666.1142 2.4426.326 1.8604-1.2712 2.6854-1.0104 2.6854-1.0104.534 1.3526.194 2.3632.097 2.6076.631.6844 1.003 1.5644 1.003 2.64 0 3.781-2.2808 4.612-4.4648 4.8566.356.3096.6632.8962.6632 1.8252 0 1.32-.016 2.3794-.016 2.7052 0 .2608.178.5706.6632.4728 3.8824-1.304 6.681-4.987 6.681-9.3382.016-5.4434-4.3678-9.8434-9.7546-9.8434z" fill="currentColor"/></svg>
